# xmcd
#
# Track frame offsets: 
#        150
#        27437
#        53525
#        81575
#        107500
#        132712
#        159975
#        184225
#        210300
#        233225
#        257400
#
# Disc length: 3657 seconds
#
# Revision: 3
# Processed by: cddbd v1.5.2PL0 Copyright (c) Steve Scherf et al.
# Submitted via: ExactAudioCopy v0.95a5
#
DISCID=8e0e470b
DTITLE=PROJECT PITCHFORK - IO
DYEAR=1994
DGENRE=Darkwave
TTITLE0=IO
TTITLE1=The Gate
TTITLE2=The Silverthread
TTITLE3=Carrion
TTITLE4=The Seeker
TTITLE5=The Swamp Of Secrecy
TTITLE6=Terra Incognita
TTITLE7=Renascence
TTITLE8=Antidote
TTITLE9=Equilibrium
TTITLE10=Conclusion
EXTD=YEAR: 1994
EXTT0=
EXTT1=
EXTT2=
EXTT3=
EXTT4=
EXTT5=
EXTT6=
EXTT7=
EXTT8=
EXTT9=
EXTT10=
PLAYORDER=
